#!OML:ASF E:\Steps\Project 1\Capture day 1\Session 2\Subject.ASF
:FULLY-SPECIFIED
:DEGREES
1
root 16.5138 19.6813 20.7504 -153.277 -3.11114 178.2
lowerback -30.4288 -2.40415 -6.29603
upperback -1.18233 -1.68006 0.303786
thorax 14.8186 -1.4524 3.0011
lowerneck -4.18867 -2.01748 -1.22297
upperneck 13.193 -3.87341 5.21049
head 4.76543 -1.88575 1.58073
rclavicle -6.31141e-015 -2.0276e-014
rhumerus -40.9111 -19.9187 -75.7805
rradius 34.6566
rwrist -3.4242
rhand -7.64709 -51.9387
rfingers 7.12502
rthumb 18.2484 -81.1028
lclavicle -6.31141e-015 -2.0276e-014
lhumerus -31.6811 3.97223 80.9593
lradius 24.1557
lwrist -3.10179
lhand -20.856 -13.1804
lfingers 7.12502
lthumb 5.51337 16.7279
rfemur -23.335 6.48583 20.1612
rtibia 6.95372
rfoot -19.7221 -3.29878
rtoes -21.9107
lfemur -24.6214 -6.54683 -22.453
ltibia 8.75744
lfoot -6.30817 -5.63988
ltoes -16.9429
2
root 16.514 19.6811 20.7489 -153.251 -3.09208 178.215
lowerback -30.47 -2.4128 -6.29151
upperback -1.17434 -1.69067 0.307097
thorax 14.8476 -1.45784 2.99668
lowerneck -4.2923 -2.05645 -1.26399
upperneck 13.3395 -3.94773 5.26547
head 4.83229 -1.92047 1.59816
rclavicle 1.69464e-014 -1.43125e-014
rhumerus -40.9198 -19.7776 -75.8438
rradius 34.7395
rwrist -3.54457
rhand -7.65751 -51.7483
rfingers 7.12502
rthumb 18.2384 -80.9133
lclavicle 1.69464e-014 -1.43125e-014
lhumerus -31.6476 4.04863 80.9325
lradius 24.1449
lwrist -3.01537
lhand -20.6851 -12.9551
lfingers 7.12502
lthumb 5.67834 16.9488
rfemur -23.3545 6.50503 20.1729
rtibia 6.9391
rfoot -18.9275 -3.31271
rtoes -22.6011
lfemur -24.6453 -6.48963 -22.4502
ltibia 8.76633
lfoot -6.29313 -5.67534
ltoes -16.9317
3
root 16.5139 19.6797 20.7471 -153.217 -3.08018 178.239
lowerback -30.5314 -2.43428 -6.28403
upperback -1.16198 -1.71918 0.322724
thorax 14.8931 -1.47175 2.99621
lowerneck -4.32205 -2.09041 -1.27597
upperneck 13.4055 -4.0071 5.29628
head 4.86051 -1.94914 1.60546
rclavicle 8.15017e-015 9.54166e-015
rhumerus -40.8572 -19.7128 -75.888
rradius 34.7449
rwrist -3.57096
rhand -7.73538 -51.7954
rfingers 7.12502
rthumb 18.1634 -80.9673
lclavicle 8.15017e-015 9.54166e-015
lhumerus -31.6069 4.22591 80.8487
lradius 24.1342
lwrist -3.18286
lhand -20.6963 -13.0745
lfingers 7.12502
lthumb 5.66754 16.8297
rfemur -23.3876 6.43662 20.2224
rtibia 6.94528
rfoot -20.0428 -3.18922
rtoes -20.6516
lfemur -24.6721 -6.47763 -22.425
ltibia 8.76831
lfoot -6.96403 -5.71383
ltoes -23.3052
4
root 16.5132 19.6788 20.7454 -153.226 -3.09209 178.241
lowerback -30.5234 -2.46754 -6.31706
upperback -1.15913 -1.75508 0.353767
thorax 14.8985 -1.49052 3.03359
lowerneck -4.29686 -2.03736 -1.28124
upperneck 13.3167 -3.92627 5.31947
head 4.82662 -1.908 1.61892
rclavicle 5.61567e-015 9.34288e-015
rhumerus -40.8306 -19.6291 -75.8864
rradius 34.7147
rwrist -3.6046
rhand -7.80097 -51.7923
rfingers 7.12502
rthumb 18.1003 -80.9701
lclavicle 5.61567e-015 9.34288e-015
lhumerus -31.6042 4.33315 80.8224
lradius 24.1428
lwrist -3.33767
lhand -20.7898 -13.1997
lfingers 7.12502
lthumb 5.57735 16.7069
rfemur -23.3953 6.33856 20.2506
rtibia 7.00106
rfoot -19.9125 -3.15655
rtoes -22.2153
lfemur -24.6577 -6.44412 -22.4342
ltibia 8.77455
lfoot -6.30075 -5.72695
ltoes -16.4101
5
root 16.5121 19.6792 20.7426 -153.251 -3.09561 178.228
lowerback -30.5286 -2.47412 -6.33549
upperback -1.12631 -1.74969 0.346046
thorax 14.9389 -1.48872 3.0373
lowerneck -4.4344 -1.89384 -1.12328
upperneck 13.1096 -3.69387 5.22843
head 4.77423 -1.78229 1.57767
rclavicle 5.1684e-015 6.36111e-015
rhumerus -40.789 -19.6353 -75.9071
rradius 34.6783
rwrist -3.61838
rhand -7.73723 -51.8881
rfingers 7.12502
rthumb 18.1617 -81.0602
lclavicle 5.1684e-015 6.36111e-015
lhumerus -31.5579 4.37027 80.8084
lradius 24.1556
lwrist -3.4146
lhand -20.7814 -13.1137
lfingers 7.12502
lthumb 5.58544 16.7927
rfemur -23.3894 6.31181 20.2325
rtibia 7.06657
rfoot -19.6289 -3.19239
rtoes -23.4058
lfemur -24.6247 -6.39546 -22.4649
ltibia 8.77573
lfoot -6.05645 -5.79291
ltoes -14.2694
6
root 16.5106 19.6789 20.738 -153.268 -3.06036 178.228
lowerback -30.5529 -2.46401 -6.32277
upperback -1.10835 -1.73472 0.330637
thorax 14.9686 -1.48116 3.019
lowerneck -4.63845 -1.82837 -0.966742
upperneck 13.0387 -3.58614 5.13625
head 4.77962 -1.71846 1.52785
rclavicle 3.72721e-015 9.34288e-015
rhumerus -40.7556 -19.8103 -75.8419
rradius 34.5921
rwrist -3.45218
rhand -7.60465 -52.1022
rfingers 7.12502
rthumb 18.2892 -81.2624
lclavicle 3.72721e-015 9.34288e-015
lhumerus -31.6026 4.45194 80.7852
lradius 24.223
lwrist -3.44632
lhand -20.7765 -13.0491
lfingers 7.12502
lthumb 5.59017 16.8572
rfemur -23.3639 6.34925 20.2108
rtibia 7.07869
rfoot -19.6586 -3.19149
rtoes -23.3417
lfemur -24.5674 -6.40359 -22.4752
ltibia 8.73101
lfoot -6.05326 -5.73608
ltoes -14.7713
7
root 16.5099 19.6786 20.7344 -153.283 -2.98966 178.275
lowerback -30.524 -2.4358 -6.29662
upperback -1.14012 -1.71669 0.348604
thorax 14.9168 -1.47182 3.03275
lowerneck -4.65162 -1.91335 -0.938228
upperneck 13.0785 -3.70311 5.08748
head 4.79661 -1.77745 1.50104
rclavicle 2.23633e-015 -6.16232e-015
rhumerus -40.7638 -19.9347 -75.7349
rradius 34.5128
rwrist -3.30957
rhand -7.54713 -52.1618
rfingers 7.12502
rthumb 18.3445 -81.3168
lclavicle 2.23633e-015 -6.16232e-015
lhumerus -31.7418 4.53891 80.7898
lradius 24.3148
lwrist -3.43523
lhand -20.8015 -12.981
lfingers 7.12502
lthumb 5.56596 16.9259
rfemur -23.347 6.46786 20.2328
rtibia 7.08479
rfoot -19.6754 -3.20751
rtoes -23.366
lfemur -24.5077 -6.42963 -22.4244
ltibia 8.67394
lfoot -5.98702 -5.47101
ltoes -14.6959
8
root 16.5095 19.6791 20.7328 -153.264 -2.95305 178.325
lowerback -30.5203 -2.40053 -6.25828
upperback -1.16803 -1.68975 0.350703
thorax 14.8791 -1.45774 3.02539
lowerneck -4.68232 -2.0599 -0.812113
upperneck 13.3174 -3.92465 4.93016
head 4.87736 -1.8916 1.41717
rclavicle -9.64106e-015 3.37934e-015
rhumerus -40.7755 -20.0194 -75.6984
rradius 34.4807
rwrist -3.2658
rhand -7.52861 -52.0332
rfingers 7.12502
rthumb 18.3624 -81.1865
lclavicle -9.64106e-015 3.37934e-015
lhumerus -31.7873 4.46982 80.7913
lradius 24.3582
lwrist -3.36833
lhand -20.7306 -12.9105
lfingers 7.12502
lthumb 5.63444 16.9946
rfemur -23.3633 6.4259 20.2937
rtibia 7.07118
rfoot -19.9918 -3.07139
rtoes -22.112
lfemur -24.5345 -6.41663 -22.3736
ltibia 8.70302
lfoot -6.15643 -5.24318
ltoes -17.836
9
root 16.5089 19.6791 20.7318 -153.206 -2.96445 178.326
lowerback -30.5698 -2.40931 -6.2598
upperback -1.17642 -1.70133 0.354938
thorax 14.8926 -1.46446 3.02451
lowerneck -4.74002 -1.98969 -0.850542
upperneck 13.1809 -3.81527 5.01041
head 4.84394 -1.83122 1.45478
rclavicle -4.32357e-015 1.94809e-014
rhumerus -40.7641 -20.0656 -75.6861
rradius 34.4779
rwrist -3.25849
rhand -7.49658 -51.7526
rfingers 7.12502
rthumb 18.3932 -80.903
lclavicle -4.32357e-015 1.94809e-014
lhumerus -31.8271 4.34339 80.8223
lradius 24.4529
lwrist -3.24315
lhand -20.6769 -12.9427
lfingers 7.12502
lthumb 5.68635 16.961
rfemur -23.4065 6.28308 20.3192
rtibia 7.03793
rfoot -20.1425 -2.89453
rtoes -20.7445
lfemur -24.6245 -6.36165 -22.386
ltibia 8.76512
lfoot -6.95928 -5.37439
ltoes -26.556
